<svg xmlns="http://www.w3.org/2000/svg" viewBox="0 0 800 600" width="800" height="600" font-family="monospace" font-size="11">
  <rect width="800" height="600" fill="white"/>

  <!-- ENO1 MGMT Box -->
  <rect x="580" y="20" width="190" height="50" rx="6" fill="none" stroke="#666" stroke-width="2" stroke-dasharray="6,4"/>
  <text x="675" y="42" text-anchor="middle" font-size="12" font-weight="bold" fill="#333">Host eno1</text>
  <text x="675" y="58" text-anchor="middle" font-size="10" fill="#666">MGMT Bridge DHCP</text>

  <!-- MGMT dashed lines from ENO1 to all routers -->
  <line x1="580" y1="45" x2="400" y2="115" stroke="#999" stroke-width="1" stroke-dasharray="5,3"/>
  <line x1="620" y1="70" x2="150" y2="280" stroke="#999" stroke-width="1" stroke-dasharray="5,3"/>
  <line x1="650" y1="70" x2="400" y2="280" stroke="#999" stroke-width="1" stroke-dasharray="5,3"/>
  <line x1="700" y1="70" x2="650" y2="280" stroke="#999" stroke-width="1" stroke-dasharray="5,3"/>
  <line x1="675" y1="70" x2="400" y2="470" stroke="#999" stroke-width="1" stroke-dasharray="5,3"/>
  <line x1="580" y1="45" x2="150" y2="100" stroke="#999" stroke-width="1" stroke-dasharray="5,3"/>
  <text x="500" y="78" font-size="9" fill="#999">macvlan</text>

  <!-- JKT2 -->
  <rect x="90" y="100" width="120" height="40" rx="6" fill="#d4e6f1" stroke="#2980b9" stroke-width="2"/>
  <text x="150" y="125" text-anchor="middle" font-weight="bold" fill="#2c3e50">JKT2</text>

  <!-- JKT1 -->
  <rect x="340" y="100" width="120" height="40" rx="6" fill="#d4e6f1" stroke="#2980b9" stroke-width="2"/>
  <text x="400" y="125" text-anchor="middle" font-weight="bold" fill="#2c3e50">JKT1</text>

  <!-- YK1 -->
  <rect x="90" y="265" width="120" height="40" rx="6" fill="#d4e6f1" stroke="#2980b9" stroke-width="2"/>
  <text x="150" y="290" text-anchor="middle" font-weight="bold" fill="#2c3e50">YK1</text>

  <!-- YK2 -->
  <rect x="340" y="265" width="120" height="40" rx="6" fill="#d4e6f1" stroke="#2980b9" stroke-width="2"/>
  <text x="400" y="290" text-anchor="middle" font-weight="bold" fill="#2c3e50">YK2</text>

  <!-- YK3 -->
  <rect x="590" y="265" width="120" height="40" rx="6" fill="#d4e6f1" stroke="#2980b9" stroke-width="2"/>
  <text x="650" y="290" text-anchor="middle" font-weight="bold" fill="#2c3e50">YK3</text>

  <!-- DR1 -->
  <rect x="340" y="455" width="120" height="40" rx="6" fill="#d4e6f1" stroke="#2980b9" stroke-width="2"/>
  <text x="400" y="480" text-anchor="middle" font-weight="bold" fill="#2c3e50">DR1</text>

  <!-- PTP Links: JKT1 to YK1/YK2/YK3 -->
  <line x1="210" y1="120" x2="340" y2="120" stroke="#2980b9" stroke-width="2"/>
  <text x="275" y="113" font-size="9" fill="#2980b9" text-anchor="middle">2401:1700:1:a::/126</text>

  <line x1="360" y1="140" x2="170" y2="265" stroke="#2980b9" stroke-width="2"/>
  <text x="240" y="195" font-size="9" fill="#2980b9" transform="rotate(-30,240,195)">2401:1700:1:1::/126</text>

  <line x1="400" y1="140" x2="400" y2="265" stroke="#2980b9" stroke-width="2"/>
  <text x="410" y="205" font-size="9" fill="#2980b9">2401:1700:1:2::/126</text>

  <line x1="440" y1="140" x2="630" y2="265" stroke="#2980b9" stroke-width="2"/>
  <text x="555" y="195" font-size="9" fill="#2980b9" transform="rotate(30,555,195)">2401:1700:1:3::/126</text>

  <!-- PTP Links: YK1-YK2, YK2-YK3, YK1-YK3 -->
  <line x1="210" y1="285" x2="340" y2="285" stroke="#2980b9" stroke-width="2"/>
  <text x="275" y="278" font-size="9" fill="#2980b9" text-anchor="middle">2401:1700:1:7::/126</text>

  <line x1="460" y1="285" x2="590" y2="285" stroke="#2980b9" stroke-width="2"/>
  <text x="525" y="278" font-size="9" fill="#2980b9" text-anchor="middle">2401:1700:1:9::/126</text>

  <!-- YK1-YK3 curved line underneath -->
  <path d="M 150 305 Q 400 380 650 305" fill="none" stroke="#2980b9" stroke-width="2"/>
  <text x="400" y="360" font-size="9" fill="#2980b9" text-anchor="middle">2401:1700:1:8::/126</text>

  <!-- PTP Links: YK1/YK2/YK3 to DR1 -->
  <line x1="170" y1="305" x2="360" y2="455" stroke="#2980b9" stroke-width="2"/>
  <text x="235" y="395" font-size="9" fill="#2980b9" transform="rotate(35,235,395)">2401:1700:1:4::/126</text>

  <line x1="400" y1="305" x2="400" y2="455" stroke="#2980b9" stroke-width="2"/>
  <text x="410" y="415" font-size="9" fill="#2980b9">2401:1700:1:5::/126</text>

  <line x1="630" y1="305" x2="440" y2="455" stroke="#2980b9" stroke-width="2"/>
  <text x="560" y="395" font-size="9" fill="#2980b9" transform="rotate(-35,560,395)">2401:1700:1:6::/126</text>

  <!-- Legend -->
  <line x1="30" y1="555" x2="70" y2="555" stroke="#2980b9" stroke-width="2"/>
  <text x="80" y="559" font-size="10" fill="#333">= Data Link (IPv6 PTP)</text>
  <line x1="30" y1="575" x2="70" y2="575" stroke="#999" stroke-width="1" stroke-dasharray="5,3"/>
  <text x="80" y="579" font-size="10" fill="#333">= Management (macvlan)</text>
</svg>
